{
    "asset" : {
        "generator" : "Khronos glTF Blender I/O v3.4.50",
        "version" : "2.0"
    },
    "scene" : 0,
    "scenes" : [
        {
            "name" : "Scene",
            "nodes" : [
                0,
                1,
                2,
                3
            ]
        }
    ],
    "nodes" : [
        {
            "mesh" : 0,
            "name" : "Cube.003",
            "rotation" : [
                0.70710688829422,
                0,
                0,
                0.7071066498756409
            ]
        },
        {
            "mesh" : 1,
            "name" : "Cube.004",
            "rotation" : [
                0.70710688829422,
                0,
                0,
                0.7071066498756409
            ]
        },
        {
            "mesh" : 2,
            "name" : "Cube.002",
            "rotation" : [
                0.70710688829422,
                0,
                0,
                0.7071066498756409
            ]
        },
        {
            "mesh" : 3,
            "name" : "Cube.006",
            "rotation" : [
                0.70710688829422,
                0,
                0,
                0.7071066498756409
            ]
        }
    ],
    "materials" : [
        {
            "doubleSided" : true,
            "name" : "Material",
            "pbrMetallicRoughness" : {
                "baseColorTexture" : {
                    "index" : 0
                },
                "metallicFactor" : 0,
                "roughnessFactor" : 0.5
            }
        },
        {
            "doubleSided" : true,
            "name" : "Material.001",
            "pbrMetallicRoughness" : {
                "baseColorTexture" : {
                    "index" : 1
                },
                "metallicFactor" : 0,
                "roughnessFactor" : 0.5
            }
        },
        {
            "doubleSided" : true,
            "name" : "Material.002",
            "pbrMetallicRoughness" : {
                "baseColorFactor" : [
                    0.0046431622467935085,
                    0.09694580733776093,
                    0,
                    1
                ],
                "metallicFactor" : 0.2635135054588318,
                "roughnessFactor" : 0.5
            }
        },
        {
            "doubleSided" : true,
            "name" : "Material.003",
            "pbrMetallicRoughness" : {
                "baseColorFactor" : [
                    0.09233502298593521,
                    0.002919464837759733,
                    0,
                    1
                ],
                "metallicFactor" : 0,
                "roughnessFactor" : 0.12837839126586914
            }
        }
    ],
    "meshes" : [
        {
            "name" : "Cube.003",
            "primitives" : [
                {
                    "attributes" : {
                        "POSITION" : 0,
                        "TEXCOORD_0" : 1,
                        "NORMAL" : 2
                    },
                    "indices" : 3,
                    "material" : 0
                }
            ]
        },
        {
            "name" : "Cube.004",
            "primitives" : [
                {
                    "attributes" : {
                        "POSITION" : 4,
                        "TEXCOORD_0" : 5,
                        "NORMAL" : 6
                    },
                    "indices" : 7,
                    "material" : 1
                }
            ]
        },
        {
            "name" : "Cube.002",
            "primitives" : [
                {
                    "attributes" : {
                        "POSITION" : 8,
                        "TEXCOORD_0" : 9,
                        "NORMAL" : 10
                    },
                    "indices" : 11,
                    "material" : 2
                }
            ]
        },
        {
            "name" : "Cube.007",
            "primitives" : [
                {
                    "attributes" : {
                        "POSITION" : 12,
                        "TEXCOORD_0" : 13,
                        "NORMAL" : 14
                    },
                    "indices" : 15,
                    "material" : 3
                }
            ]
        }
    ],
    "textures" : [
        {
            "sampler" : 0,
            "source" : 0
        },
        {
            "sampler" : 0,
            "source" : 1
        }
    ],
    "images" : [
        {
            "mimeType" : "image/png",
            "name" : "texture2",
            "uri" : "textures/texture2.png"
        },
        {
            "mimeType" : "image/png",
            "name" : "texture1",
            "uri" : "textures/texture1.png"
        }
    ],
    "accessors" : [
        {
            "bufferView" : 0,
            "componentType" : 5126,
            "count" : 2751,
            "max" : [
                2.7909820079803467,
                1.3544349670410156,
                -0.6175618767738342
            ],
            "min" : [
                -3.338992118835449,
                -0.7372490167617798,
                -4.208226203918457
            ],
            "type" : "VEC3"
        },
        {
            "bufferView" : 1,
            "componentType" : 5126,
            "count" : 2751,
            "type" : "VEC2"
        },
        {
            "bufferView" : 2,
            "componentType" : 5126,
            "count" : 2751,
            "type" : "VEC3"
        },
        {
            "bufferView" : 3,
            "componentType" : 5123,
            "count" : 5256,
            "type" : "SCALAR"
        },
        {
            "bufferView" : 4,
            "componentType" : 5126,
            "count" : 6770,
            "max" : [
                2.07466197013855,
                2.581486940383911,
                0
            ],
            "min" : [
                -1.9613139629364014,
                -3.0414741039276123,
                -1
            ],
            "type" : "VEC3"
        },
        {
            "bufferView" : 5,
            "componentType" : 5126,
            "count" : 6770,
            "type" : "VEC2"
        },
        {
            "bufferView" : 6,
            "componentType" : 5126,
            "count" : 6770,
            "type" : "VEC3"
        },
        {
            "bufferView" : 7,
            "componentType" : 5123,
            "count" : 18243,
            "type" : "SCALAR"
        },
        {
            "bufferView" : 8,
            "componentType" : 5126,
            "count" : 551,
            "max" : [
                0.5248910188674927,
                0.3742530047893524,
                -2.8875439167022705
            ],
            "min" : [
                -0.7075099945068359,
                0.1931460052728653,
                -3.7297110557556152
            ],
            "type" : "VEC3"
        },
        {
            "bufferView" : 9,
            "componentType" : 5126,
            "count" : 551,
            "type" : "VEC2"
        },
        {
            "bufferView" : 10,
            "componentType" : 5126,
            "count" : 551,
            "type" : "VEC3"
        },
        {
            "bufferView" : 11,
            "componentType" : 5123,
            "count" : 849,
            "type" : "SCALAR"
        },
        {
            "bufferView" : 12,
            "componentType" : 5126,
            "count" : 2310,
            "max" : [
                -1.7417349815368652,
                0.5751199722290039,
                -0.7274580001831055
            ],
            "min" : [
                -3.277559995651245,
                -0.42861899733543396,
                -3.102631092071533
            ],
            "type" : "VEC3"
        },
        {
            "bufferView" : 13,
            "componentType" : 5126,
            "count" : 2310,
            "type" : "VEC2"
        },
        {
            "bufferView" : 14,
            "componentType" : 5126,
            "count" : 2310,
            "type" : "VEC3"
        },
        {
            "bufferView" : 15,
            "componentType" : 5123,
            "count" : 3414,
            "type" : "SCALAR"
        }
    ],
    "bufferViews" : [
        {
            "buffer" : 0,
            "byteLength" : 33012,
            "byteOffset" : 0,
            "target" : 34962
        },
        {
            "buffer" : 0,
            "byteLength" : 22008,
            "byteOffset" : 33012,
            "target" : 34962
        },
        {
            "buffer" : 0,
            "byteLength" : 33012,
            "byteOffset" : 55020,
            "target" : 34962
        },
        {
            "buffer" : 0,
            "byteLength" : 10512,
            "byteOffset" : 88032,
            "target" : 34963
        },
        {
            "buffer" : 0,
            "byteLength" : 81240,
            "byteOffset" : 98544,
            "target" : 34962
        },
        {
            "buffer" : 0,
            "byteLength" : 54160,
            "byteOffset" : 179784,
            "target" : 34962
        },
        {
            "buffer" : 0,
            "byteLength" : 81240,
            "byteOffset" : 233944,
            "target" : 34962
        },
        {
            "buffer" : 0,
            "byteLength" : 36486,
            "byteOffset" : 315184,
            "target" : 34963
        },
        {
            "buffer" : 0,
            "byteLength" : 6612,
            "byteOffset" : 351672,
            "target" : 34962
        },
        {
            "buffer" : 0,
            "byteLength" : 4408,
            "byteOffset" : 358284,
            "target" : 34962
        },
        {
            "buffer" : 0,
            "byteLength" : 6612,
            "byteOffset" : 362692,
            "target" : 34962
        },
        {
            "buffer" : 0,
            "byteLength" : 1698,
            "byteOffset" : 369304,
            "target" : 34963
        },
        {
            "buffer" : 0,
            "byteLength" : 27720,
            "byteOffset" : 371004,
            "target" : 34962
        },
        {
            "buffer" : 0,
            "byteLength" : 18480,
            "byteOffset" : 398724,
            "target" : 34962
        },
        {
            "buffer" : 0,
            "byteLength" : 27720,
            "byteOffset" : 417204,
            "target" : 34962
        },
        {
            "buffer" : 0,
            "byteLength" : 6828,
            "byteOffset" : 444924,
            "target" : 34963
        }
    ],
    "samplers" : [
        {
            "magFilter" : 9729,
            "minFilter" : 9987
        }
    ],
    "buffers" : [
        {
            "byteLength" : 451752,
            "uri" : "wip.bin"
        }
    ]
}
